<svg width="16" height="16" viewBox="0 0 16 16" fill="none" xmlns="http://www.w3.org/2000/svg">
<path d="M3.18872 12.1172H4.09752L10.3316 5.88311L9.42278 4.97431L3.18872 11.2084V12.1172ZM1.91321 13.3927V10.6822L10.3316 2.2798C10.4591 2.16287 10.6 2.07252 10.7541 2.00875C10.9082 1.94497 11.0703 1.91309 11.2404 1.91309C11.4104 1.91309 11.5752 1.94497 11.7346 2.00875C11.8941 2.07252 12.0323 2.16819 12.1492 2.29574L13.0261 3.1886C13.1536 3.30552 13.2466 3.4437 13.3051 3.60314C13.3636 3.76258 13.3928 3.92201 13.3928 4.08145C13.3928 4.25152 13.3636 4.41362 13.3051 4.56774C13.2466 4.72187 13.1536 4.8627 13.0261 4.99025L4.62367 13.3927H1.91321ZM9.8692 5.43668L9.42278 4.97431L10.3316 5.88311L9.8692 5.43668Z" fill="#1D1B20"/>
</svg>
